<svg data-v-423bf9ae="" xmlns="http://www.w3.org/2000/svg" viewBox="0 0 501 90" class="iconLeft"><!----><!----><!----><g data-v-423bf9ae="" id="b4a7e8aa-2b61-4600-a0a0-259e59612f55" fill="white" transform="matrix(3.931848155293183,0,0,3.931848155293183,110.35119424214739,7.293576988800098)"><path d="M3.05 6.08L3.05 7.07L3.11 7.07L3.11 7.07Q4.03 6.02 5.52 6.02L5.52 6.02L5.52 6.02Q6.33 6.02 7.01 6.31L7.01 6.31L7.01 6.31Q7.69 6.59 8.18 7.10L8.18 7.10L8.18 7.10Q8.68 7.62 8.95 8.32L8.95 8.32L8.95 8.32Q9.23 9.03 9.23 9.87L9.23 9.87L9.23 9.87Q9.23 10.71 8.95 11.41L8.95 11.41L8.95 11.41Q8.68 12.11 8.19 12.63L8.19 12.63L8.19 12.63Q7.70 13.15 7.02 13.43L7.02 13.43L7.02 13.43Q6.34 13.72 5.54 13.72L5.54 13.72L5.54 13.72Q4.19 13.72 3.47 12.80L3.47 12.80L3.42 12.80L3.42 14.74L3.42 14.74Q3.42 15.30 3.47 15.64L3.47 15.64L3.47 15.64Q3.53 15.97 3.71 16.16L3.71 16.16L3.71 16.16Q3.89 16.34 4.22 16.41L4.22 16.41L4.22 16.41Q4.55 16.48 5.10 16.49L5.10 16.49L5.10 17.08L0.27 17.08L0.27 16.49L0.27 16.49Q0.64 16.48 0.88 16.41L0.88 16.41L0.88 16.41Q1.12 16.34 1.25 16.16L1.25 16.16L1.25 16.16Q1.39 15.97 1.44 15.66L1.44 15.66L1.44 15.66Q1.48 15.34 1.48 14.84L1.48 14.84L1.48 9.63L1.48 9.63Q1.48 8.99 1.46 8.41L1.46 8.41L1.46 8.41Q1.43 7.83 1.39 7.59L1.39 7.59L1.39 7.59Q1.32 7.27 1.07 7.14L1.07 7.14L1.07 7.14Q0.83 7.01 0.24 7.01L0.24 7.01L0.24 6.47L3.05 6.08ZM5.43 6.82L5.43 6.82L5.43 6.82Q4.98 6.82 4.58 7.01L4.58 7.01L4.58 7.01Q4.17 7.21 3.93 7.53L3.93 7.53L3.93 7.53Q3.70 7.85 3.57 8.34L3.57 8.34L3.57 8.34Q3.44 8.82 3.44 9.38L3.44 9.38L3.44 10.33L3.44 10.33Q3.44 11.33 3.93 12.03L3.93 12.03L3.93 12.03Q4.47 12.80 5.43 12.80L5.43 12.80L5.43 12.80Q6.29 12.80 6.70 12.09L6.70 12.09L6.70 12.09Q7.11 11.38 7.11 9.90L7.11 9.90L7.11 9.90Q7.11 6.82 5.43 6.82ZM16.49 13.72L16.49 12.68L16.44 12.68L16.44 12.68Q15.47 13.72 13.93 13.72L13.93 13.72L13.93 13.72Q13.13 13.72 12.47 13.44L12.47 13.44L12.47 13.44Q11.80 13.16 11.32 12.66L11.32 12.66L11.32 12.66Q10.84 12.15 10.57 11.46L10.57 11.46L10.57 11.46Q10.30 10.77 10.30 9.93L10.30 9.93L10.30 9.93Q10.30 9.09 10.58 8.37L10.58 8.37L10.58 8.37Q10.85 7.66 11.32 7.13L11.32 7.13L11.32 7.13Q11.79 6.61 12.44 6.31L12.44 6.31L12.44 6.31Q13.09 6.02 13.85 6.02L13.85 6.02L13.85 6.02Q14.55 6.02 15.09 6.23L15.09 6.23L15.09 6.23Q15.62 6.44 16.03 6.94L16.03 6.94L16.09 6.94L16.09 5.75L16.09 5.75Q16.09 4.93 16.07 4.33L16.07 4.33L16.07 4.33Q16.04 3.74 16.00 3.56L16.00 3.56L16.00 3.56Q15.93 3.26 15.58 3.13L15.58 3.13L15.58 3.13Q15.22 3.00 14.48 3.00L14.48 3.00L14.48 2.52L18.02 1.96L18.02 9.97L18.02 9.97Q18.02 11.02 18.04 11.59L18.04 11.59L18.04 11.59Q18.06 12.15 18.12 12.45L18.12 12.45L18.12 12.45Q18.14 12.63 18.20 12.74L18.20 12.74L18.20 12.74Q18.26 12.85 18.37 12.91L18.37 12.91L18.37 12.91Q18.48 12.98 18.67 13.00L18.67 13.00L18.67 13.00Q18.86 13.02 19.15 13.02L19.15 13.02L19.15 13.57L16.49 13.72ZM16.06 10.11L16.06 9.56L16.06 9.56Q16.06 9.03 15.95 8.57L15.95 8.57L15.95 8.57Q15.83 8.12 15.61 7.77L15.61 7.77L15.61 7.77Q15.36 7.36 14.97 7.15L14.97 7.15L14.97 7.15Q14.57 6.94 14.13 6.94L14.13 6.94L14.13 6.94Q13.30 6.94 12.87 7.70L12.87 7.70L12.87 7.70Q12.43 8.46 12.43 9.90L12.43 9.90L12.43 9.90Q12.43 11.35 12.87 12.14L12.87 12.14L12.87 12.14Q13.30 12.92 14.11 12.92L14.11 12.92L14.11 12.92Q14.57 12.92 14.99 12.68L14.99 12.68L14.99 12.68Q15.41 12.45 15.68 12.04L15.68 12.04L15.68 12.04Q15.88 11.73 15.97 11.28L15.97 11.28L15.97 11.28Q16.06 10.82 16.06 10.11L16.06 10.11ZM19.71 6.93L19.71 6.16L21.22 6.16L21.22 5.38L21.22 5.38Q21.22 4.62 21.48 3.99L21.48 3.99L21.48 3.99Q21.74 3.36 22.20 2.90L22.20 2.90L22.20 2.90Q22.67 2.45 23.32 2.21L23.32 2.21L23.32 2.21Q23.97 1.96 24.77 1.96L24.77 1.96L24.77 1.96Q25.24 1.96 25.64 2.05L25.64 2.05L25.64 2.05Q26.04 2.14 26.33 2.30L26.33 2.30L26.33 2.30Q26.63 2.45 26.79 2.67L26.79 2.67L26.79 2.67Q26.95 2.90 26.95 3.15L26.95 3.15L26.95 3.15Q26.95 3.47 26.71 3.68L26.71 3.68L26.71 3.68Q26.47 3.89 26.11 3.89L26.11 3.89L26.11 3.89Q25.86 3.89 25.67 3.72L25.67 3.72L25.67 3.72Q25.48 3.56 25.10 3.11L25.10 3.11L25.10 3.11Q24.93 2.91 24.75 2.83L24.75 2.83L24.75 2.83Q24.57 2.74 24.37 2.74L24.37 2.74L24.37 2.74Q23.81 2.74 23.49 3.42L23.49 3.42L23.49 3.42Q23.17 4.10 23.17 5.29L23.17 5.29L23.17 6.16L25.54 6.16L25.54 6.93L23.17 6.93L23.17 11.26L23.17 11.26Q23.17 11.79 23.23 12.12L23.23 12.12L23.23 12.12Q23.30 12.46 23.47 12.66L23.47 12.66L23.47 12.66Q23.65 12.85 23.94 12.93L23.94 12.93L23.94 12.93Q24.23 13.01 24.70 13.02L24.70 13.02L24.70 13.58L19.96 13.58L19.96 13.02L19.96 13.02Q20.38 13.01 20.64 12.94L20.64 12.94L20.64 12.94Q20.89 12.88 21.01 12.71L21.01 12.71L21.01 12.71Q21.14 12.53 21.18 12.21L21.18 12.21L21.18 12.21Q21.22 11.90 21.22 11.37L21.22 11.37L21.22 6.93L19.71 6.93ZM33.01 11.16L32.69 10.32L28.73 10.32L28.73 10.32Q28.07 11.80 28.07 12.38L28.07 12.38L28.07 12.38Q28.07 12.80 28.39 12.91L28.39 12.91L28.39 12.91Q28.70 13.02 29.33 13.02L29.33 13.02L29.33 13.58L25.49 13.58L25.49 13.02L25.49 13.02Q25.83 12.98 26.08 12.91L26.08 12.91L26.08 12.91Q26.32 12.84 26.51 12.71L26.51 12.71L26.51 12.71Q26.70 12.59 26.84 12.38L26.84 12.38L26.84 12.38Q26.98 12.18 27.10 11.89L27.10 11.89L30.79 2.66L31.82 2.66L35.17 10.84L35.17 10.84Q35.46 11.55 35.67 11.96L35.67 11.96L35.67 11.96Q35.87 12.36 36.10 12.58L36.10 12.58L36.10 12.58Q36.33 12.80 36.63 12.88L36.63 12.88L36.63 12.88Q36.93 12.96 37.41 13.01L37.41 13.01L37.41 13.58L32.12 13.58L32.12 13.01L32.12 13.01Q32.79 12.98 33.08 12.87L33.08 12.87L33.08 12.87Q33.38 12.75 33.38 12.42L33.38 12.42L33.38 12.42Q33.38 12.22 33.28 11.91L33.28 11.91L33.28 11.91Q33.18 11.61 33.01 11.16L33.01 11.16ZM30.72 5.24L29.05 9.48L32.38 9.48L30.77 5.24L30.72 5.24ZM40.61 10.74L40.61 11.41L40.61 11.41Q40.61 11.96 40.66 12.27L40.66 12.27L40.66 12.27Q40.71 12.59 40.87 12.75L40.87 12.75L40.87 12.75Q41.02 12.92 41.31 12.97L41.31 12.97L41.31 12.97Q41.61 13.02 42.10 13.02L42.10 13.02L42.10 13.58L37.42 13.58L37.42 13.02L37.42 13.02Q37.84 12.99 38.09 12.94L38.09 12.94L38.09 12.94Q38.35 12.88 38.47 12.71L38.47 12.71L38.47 12.71Q38.60 12.54 38.63 12.23L38.63 12.23L38.63 12.23Q38.67 11.91 38.67 11.38L38.67 11.38L38.67 9.67L38.67 9.67Q38.67 8.81 38.63 8.29L38.63 8.29L38.63 8.29Q38.58 7.77 38.44 7.49L38.44 7.49L38.44 7.49Q38.30 7.21 38.05 7.12L38.05 7.12L38.05 7.12Q37.79 7.03 37.37 7.03L37.37 7.03L37.37 6.54L40.17 6.02L40.39 7.63L40.45 7.63L40.45 7.63Q40.82 6.89 41.44 6.45L41.44 6.45L41.44 6.45Q42.06 6.02 42.74 6.02L42.74 6.02L42.74 6.02Q43.27 6.02 43.61 6.29L43.61 6.29L43.61 6.29Q43.95 6.55 43.95 6.96L43.95 6.96L43.95 6.96Q43.95 7.41 43.69 7.71L43.69 7.71L43.69 7.71Q43.43 8.02 42.98 8.02L42.98 8.02L42.98 8.02Q42.77 8.02 42.60 7.94L42.60 7.94L42.60 7.94Q42.43 7.85 42.30 7.75L42.30 7.75L42.30 7.75Q42.17 7.64 42.04 7.55L42.04 7.55L42.04 7.55Q41.90 7.46 41.76 7.46L41.76 7.46L41.76 7.46Q41.50 7.46 41.26 7.81L41.26 7.81L41.26 7.81Q41.02 8.16 40.87 8.75L40.87 8.75L40.87 8.75Q40.75 9.17 40.68 9.70L40.68 9.70L40.68 9.70Q40.61 10.22 40.61 10.74L40.61 10.74ZM47.17 12.07L47.17 12.07L47.17 12.07Q47.54 12.10 47.83 12.12L47.83 12.12L47.83 12.12Q48.12 12.15 48.38 12.19L48.38 12.19L48.38 12.19Q48.64 12.22 48.90 12.26L48.90 12.26L48.90 12.26Q49.15 12.29 49.45 12.33L49.45 12.33L49.45 12.33Q50.54 12.49 51.16 13.15L51.16 13.15L51.16 13.15Q51.79 13.82 51.79 14.80L51.79 14.80L51.79 14.80Q51.79 15.99 50.81 16.60L50.81 16.60L50.81 16.60Q49.83 17.22 47.92 17.22L47.92 17.22L47.92 17.22Q46.17 17.22 45.23 16.71L45.23 16.71L45.23 16.71Q44.28 16.20 44.28 15.26L44.28 15.26L44.28 15.26Q44.28 14.53 44.66 14.16L44.66 14.16L44.66 14.16Q45.04 13.79 45.61 13.79L45.61 13.79L45.61 13.79Q45.98 13.79 46.32 13.94L46.32 13.94L46.32 13.94Q46.66 14.08 46.90 14.36L46.90 14.36L46.90 14.36Q46.54 14.43 46.31 14.69L46.31 14.69L46.31 14.69Q46.07 14.95 46.07 15.30L46.07 15.30L46.07 15.30Q46.07 15.86 46.57 16.16L46.57 16.16L46.57 16.16Q47.07 16.46 48.03 16.46L48.03 16.46L48.03 16.46Q50.13 16.46 50.13 15.13L50.13 15.13L50.13 15.13Q50.13 14.66 49.82 14.31L49.82 14.31L49.82 14.31Q49.50 13.97 48.92 13.90L48.92 13.90L46.47 13.57L46.47 13.57Q44.91 13.36 44.91 12.18L44.91 12.18L44.91 12.18Q44.91 11.61 45.28 11.24L45.28 11.24L45.28 11.24Q45.65 10.88 46.34 10.74L46.34 10.74L46.34 10.68L46.34 10.68Q46.02 10.56 45.76 10.33L45.76 10.33L45.76 10.33Q45.50 10.11 45.30 9.81L45.30 9.81L45.30 9.81Q45.11 9.52 45.00 9.18L45.00 9.18L45.00 9.18Q44.90 8.83 44.90 8.47L44.90 8.47L44.90 8.47Q44.90 7.95 45.12 7.50L45.12 7.50L45.12 7.50Q45.33 7.04 45.72 6.72L45.72 6.72L45.72 6.72Q46.10 6.40 46.63 6.21L46.63 6.21L46.63 6.21Q47.15 6.02 47.77 6.02L47.77 6.02L47.77 6.02Q48.37 6.02 48.94 6.20L48.94 6.20L48.94 6.20Q49.52 6.38 49.92 6.71L49.92 6.71L49.92 6.71Q50.25 6.51 50.48 6.38L50.48 6.38L50.48 6.38Q50.72 6.24 50.93 6.17L50.93 6.17L50.93 6.17Q51.13 6.09 51.30 6.05L51.30 6.05L51.30 6.05Q51.46 6.02 51.63 6.02L51.63 6.02L51.63 6.02Q52.16 6.02 52.49 6.26L52.49 6.26L52.49 6.26Q52.82 6.50 52.82 6.89L52.82 6.89L52.82 6.89Q52.82 7.18 52.64 7.37L52.64 7.37L52.64 7.37Q52.46 7.56 52.16 7.56L52.16 7.56L52.16 7.56Q51.95 7.56 51.83 7.47L51.83 7.47L51.83 7.47Q51.70 7.38 51.58 7.26L51.58 7.26L51.58 7.26Q51.46 7.14 51.34 7.05L51.34 7.05L51.34 7.05Q51.21 6.96 51.00 6.96L51.00 6.96L51.00 6.96Q50.71 6.96 50.44 7.34L50.44 7.34L50.44 7.34Q50.58 7.57 50.64 7.85L50.64 7.85L50.64 7.85Q50.69 8.12 50.69 8.48L50.69 8.48L50.69 8.48Q50.69 9.02 50.53 9.46L50.53 9.46L50.53 9.46Q50.36 9.91 50.00 10.25L50.00 10.25L50.00 10.25Q49.64 10.60 49.08 10.84L49.08 10.84L49.08 10.84Q48.52 11.07 47.73 11.16L47.73 11.16L47.73 11.16Q47.05 11.23 46.80 11.34L46.80 11.34L46.80 11.34Q46.54 11.45 46.54 11.68L46.54 11.68L46.54 11.68Q46.54 12.01 47.17 12.07ZM47.84 10.36L47.84 10.36L47.84 10.36Q48.29 10.36 48.54 9.88L48.54 9.88L48.54 9.88Q48.79 9.41 48.79 8.55L48.79 8.55L48.79 8.55Q48.79 7.69 48.54 7.22L48.54 7.22L48.54 7.22Q48.29 6.75 47.82 6.75L47.82 6.75L47.82 6.75Q47.35 6.75 47.07 7.22L47.07 7.22L47.07 7.22Q46.79 7.70 46.79 8.53L46.79 8.53L46.79 8.53Q46.79 9.37 47.08 9.86L47.08 9.86L47.08 9.86Q47.36 10.36 47.84 10.36ZM59.60 11.79L59.99 12.28L59.99 12.28Q58.72 13.72 56.81 13.72L56.81 13.72L56.81 13.72Q55.94 13.72 55.24 13.45L55.24 13.45L55.24 13.45Q54.53 13.17 54.03 12.68L54.03 12.68L54.03 12.68Q53.52 12.18 53.24 11.49L53.24 11.49L53.24 11.49Q52.96 10.81 52.96 9.97L52.96 9.97L52.96 9.97Q52.96 9.10 53.26 8.38L53.26 8.38L53.26 8.38Q53.55 7.66 54.09 7.13L54.09 7.13L54.09 7.13Q54.63 6.61 55.36 6.31L55.36 6.31L55.36 6.31Q56.10 6.02 56.98 6.02L56.98 6.02L56.98 6.02Q58.46 6.02 59.29 6.82L59.29 6.82L59.29 6.82Q60.12 7.62 60.12 9.06L60.12 9.06L60.12 9.06Q60.12 9.28 60.05 9.33L60.05 9.33L60.05 9.33Q59.98 9.38 59.65 9.38L59.65 9.38L55.15 9.38L55.15 9.38Q55.09 9.51 55.09 9.84L55.09 9.84L55.09 9.84Q55.09 11.21 55.69 12.01L55.69 12.01L55.69 12.01Q56.28 12.81 57.30 12.81L57.30 12.81L57.30 12.81Q57.89 12.81 58.47 12.54L58.47 12.54L58.47 12.54Q59.05 12.28 59.60 11.79L59.60 11.79ZM55.24 8.60L57.27 8.60L57.27 8.60Q57.83 8.60 57.99 8.53L57.99 8.53L57.99 8.53Q58.16 8.47 58.16 8.23L58.16 8.23L58.16 8.23Q58.16 7.62 57.81 7.22L57.81 7.22L57.81 7.22Q57.46 6.83 56.92 6.83L56.92 6.83L56.92 6.83Q56.32 6.83 55.85 7.33L55.85 7.33L55.85 7.33Q55.38 7.83 55.24 8.60L55.24 8.60ZM64.22 9.37L64.22 11.30L64.22 11.30Q64.22 11.87 64.25 12.20L64.25 12.20L64.25 12.20Q64.29 12.53 64.41 12.71L64.41 12.71L64.41 12.71Q64.53 12.88 64.77 12.94L64.77 12.94L64.77 12.94Q65.02 12.99 65.44 13.02L65.44 13.02L65.44 13.58L61.03 13.58L61.03 13.02L61.03 13.02Q61.43 12.99 61.68 12.94L61.68 12.94L61.68 12.94Q61.92 12.88 62.05 12.71L62.05 12.71L62.05 12.71Q62.19 12.54 62.23 12.24L62.23 12.24L62.23 12.24Q62.27 11.93 62.27 11.40L62.27 11.40L62.27 9.65L62.27 9.65Q62.27 8.82 62.24 8.31L62.24 8.31L62.24 8.31Q62.22 7.80 62.17 7.62L62.17 7.62L62.17 7.62Q62.13 7.43 62.06 7.31L62.06 7.31L62.06 7.31Q61.99 7.20 61.85 7.13L61.85 7.13L61.85 7.13Q61.71 7.07 61.50 7.05L61.50 7.05L61.50 7.05Q61.29 7.03 60.97 7.03L60.97 7.03L60.97 6.55L63.67 6.02L63.85 7.25L63.91 7.25L63.91 7.25Q64.37 6.66 65.00 6.34L65.00 6.34L65.00 6.34Q65.63 6.02 66.39 6.02L66.39 6.02L66.39 6.02Q67.28 6.02 67.84 6.26L67.84 6.26L67.84 6.26Q68.39 6.51 68.82 7.08L68.82 7.08L68.82 7.08Q69.06 7.41 69.24 7.92L69.24 7.92L69.24 7.92Q69.43 8.43 69.43 9.32L69.43 9.32L69.43 11.30L69.43 11.30Q69.43 11.87 69.46 12.20L69.46 12.20L69.46 12.20Q69.50 12.53 69.61 12.71L69.61 12.71L69.61 12.71Q69.73 12.88 69.97 12.94L69.97 12.94L69.97 12.94Q70.21 12.99 70.62 13.02L70.62 13.02L70.62 13.58L66.23 13.58L66.23 13.02L66.23 13.02Q66.65 13.01 66.90 12.94L66.90 12.94L66.90 12.94Q67.14 12.88 67.27 12.71L67.27 12.71L67.27 12.71Q67.40 12.54 67.44 12.23L67.44 12.23L67.44 12.23Q67.48 11.91 67.48 11.40L67.48 11.40L67.48 9.49L67.48 9.49Q67.48 8.78 67.40 8.29L67.40 8.29L67.40 8.29Q67.31 7.80 67.12 7.50L67.12 7.50L67.12 7.50Q66.93 7.20 66.63 7.06L66.63 7.06L66.63 7.06Q66.32 6.93 65.86 6.93L65.86 6.93L65.86 6.93Q65.41 6.93 65.09 7.18L65.09 7.18L65.09 7.18Q64.76 7.43 64.53 7.88L64.53 7.88L64.53 7.88Q64.40 8.13 64.31 8.53L64.31 8.53L64.31 8.53Q64.22 8.93 64.22 9.37L64.22 9.37ZM72.17 6.93L71.15 6.93L71.15 6.30L71.15 6.30Q71.99 6.06 72.56 5.58L72.56 5.58L72.56 5.58Q73.12 5.10 73.40 4.47L73.40 4.47L74.12 4.47L74.12 6.16L75.73 6.16L75.73 6.93L74.12 6.93L74.12 11.23L74.12 11.23Q74.12 12.10 74.31 12.46L74.31 12.46L74.31 12.46Q74.49 12.82 74.94 12.82L74.94 12.82L74.94 12.82Q75.49 12.82 75.77 12.32L75.77 12.32L76.06 12.73L76.06 12.73Q75.67 13.72 74.21 13.72L74.21 13.72L74.21 13.72Q73.25 13.72 72.71 13.27L72.71 13.27L72.71 13.27Q72.17 12.82 72.17 12.01L72.17 12.01L72.17 6.93ZM79.74 6.02L79.74 11.28L79.74 11.28Q79.74 11.84 79.79 12.18L79.79 12.18L79.79 12.18Q79.83 12.52 79.95 12.70L79.95 12.70L79.95 12.70Q80.08 12.88 80.32 12.94L80.32 12.94L80.32 12.94Q80.56 13.01 80.96 13.02L80.96 13.02L80.96 13.58L76.55 13.58L76.55 13.02L76.55 13.02Q76.94 13.01 77.19 12.93L77.19 12.93L77.19 12.93Q77.43 12.85 77.57 12.68L77.57 12.68L77.57 12.68Q77.70 12.50 77.75 12.19L77.75 12.19L77.75 12.19Q77.80 11.87 77.80 11.38L77.80 11.38L77.80 9.66L77.80 9.66Q77.80 8.85 77.77 8.32L77.77 8.32L77.77 8.32Q77.74 7.80 77.70 7.60L77.70 7.60L77.70 7.60Q77.63 7.25 77.39 7.14L77.39 7.14L77.39 7.14Q77.14 7.03 76.50 7.03L76.50 7.03L76.50 6.55L79.74 6.02ZM77.69 3.05L77.69 3.05L77.69 3.05Q77.69 2.59 78.00 2.28L78.00 2.28L78.00 2.28Q78.32 1.96 78.76 1.96L78.76 1.96L78.76 1.96Q79.23 1.96 79.54 2.28L79.54 2.28L79.54 2.28Q79.86 2.59 79.86 3.05L79.86 3.05L79.86 3.05Q79.86 3.50 79.54 3.81L79.54 3.81L79.54 3.81Q79.23 4.13 78.76 4.13L78.76 4.13L78.76 4.13Q78.32 4.13 78.00 3.81L78.00 3.81L78.00 3.81Q77.69 3.50 77.69 3.05ZM84.80 9.37L84.80 11.30L84.80 11.30Q84.80 11.87 84.83 12.20L84.83 12.20L84.83 12.20Q84.87 12.53 84.99 12.71L84.99 12.71L84.99 12.71Q85.11 12.88 85.35 12.94L85.35 12.94L85.35 12.94Q85.60 12.99 86.02 13.02L86.02 13.02L86.02 13.58L81.61 13.58L81.61 13.02L81.61 13.02Q82.01 12.99 82.26 12.94L82.26 12.94L82.26 12.94Q82.50 12.88 82.64 12.71L82.64 12.71L82.64 12.71Q82.77 12.54 82.81 12.24L82.81 12.24L82.81 12.24Q82.85 11.93 82.85 11.40L82.85 11.40L82.85 9.65L82.85 9.65Q82.85 8.82 82.82 8.31L82.82 8.31L82.82 8.31Q82.80 7.80 82.75 7.62L82.75 7.62L82.75 7.62Q82.71 7.43 82.64 7.31L82.64 7.31L82.64 7.31Q82.57 7.20 82.43 7.13L82.43 7.13L82.43 7.13Q82.29 7.07 82.08 7.05L82.08 7.05L82.08 7.05Q81.87 7.03 81.55 7.03L81.55 7.03L81.55 6.55L84.25 6.02L84.43 7.25L84.49 7.25L84.49 7.25Q84.95 6.66 85.58 6.34L85.58 6.34L85.58 6.34Q86.21 6.02 86.97 6.02L86.97 6.02L86.97 6.02Q87.86 6.02 88.42 6.26L88.42 6.26L88.42 6.26Q88.97 6.51 89.40 7.08L89.40 7.08L89.40 7.08Q89.64 7.41 89.82 7.92L89.82 7.92L89.82 7.92Q90.01 8.43 90.01 9.32L90.01 9.32L90.01 11.30L90.01 11.30Q90.01 11.87 90.04 12.20L90.04 12.20L90.04 12.20Q90.08 12.53 90.20 12.71L90.20 12.71L90.20 12.71Q90.31 12.88 90.55 12.94L90.55 12.94L90.55 12.94Q90.79 12.99 91.20 13.02L91.20 13.02L91.20 13.58L86.81 13.58L86.81 13.02L86.81 13.02Q87.23 13.01 87.48 12.94L87.48 12.94L87.48 12.94Q87.72 12.88 87.85 12.71L87.85 12.71L87.85 12.71Q87.98 12.54 88.02 12.23L88.02 12.23L88.02 12.23Q88.06 11.91 88.06 11.40L88.06 11.40L88.06 9.49L88.06 9.49Q88.06 8.78 87.98 8.29L87.98 8.29L87.98 8.29Q87.89 7.80 87.70 7.50L87.70 7.50L87.70 7.50Q87.51 7.20 87.21 7.06L87.21 7.06L87.21 7.06Q86.90 6.93 86.44 6.93L86.44 6.93L86.44 6.93Q85.99 6.93 85.67 7.18L85.67 7.18L85.67 7.18Q85.34 7.43 85.11 7.88L85.11 7.88L85.11 7.88Q84.98 8.13 84.89 8.53L84.89 8.53L84.89 8.53Q84.80 8.93 84.80 9.37L84.80 9.37ZM96.19 10.92L96.19 9.59L96.19 9.59Q95.02 10.12 94.42 10.58L94.42 10.58L94.42 10.58Q93.83 11.03 93.83 11.52L93.83 11.52L93.83 11.52Q93.83 11.93 94.05 12.17L94.05 12.17L94.05 12.17Q94.28 12.40 94.61 12.40L94.61 12.40L94.61 12.40Q94.95 12.40 95.24 12.29L95.24 12.29L95.24 12.29Q95.54 12.17 95.75 11.97L95.75 11.97L95.75 11.97Q95.96 11.77 96.08 11.50L96.08 11.50L96.08 11.50Q96.19 11.23 96.19 10.92L96.19 10.92ZM94.22 9.70L96.19 8.85L96.19 8.26L96.19 8.26Q96.19 7.45 95.91 7.08L95.91 7.08L95.91 7.08Q95.62 6.71 95.02 6.71L95.02 6.71L95.02 6.71Q94.61 6.71 94.40 6.92L94.40 6.92L94.40 6.92Q94.19 7.14 94.01 7.64L94.01 7.64L94.01 7.64Q93.88 7.99 93.65 8.19L93.65 8.19L93.65 8.19Q93.42 8.39 93.02 8.39L93.02 8.39L93.02 8.39Q92.62 8.39 92.41 8.15L92.41 8.15L92.41 8.15Q92.20 7.91 92.20 7.48L92.20 7.48L92.20 7.48Q92.20 6.80 92.94 6.41L92.94 6.41L92.94 6.41Q93.67 6.02 95.16 6.02L95.16 6.02L95.16 6.02Q96.73 6.02 97.40 6.59L97.40 6.59L97.40 6.59Q98.07 7.15 98.07 8.48L98.07 8.48L98.07 11.55L98.07 11.55Q98.07 12.74 98.55 12.74L98.55 12.74L98.55 12.74Q98.81 12.74 99.04 12.56L99.04 12.56L99.25 12.96L99.25 12.96Q99.05 13.31 98.64 13.52L98.64 13.52L98.64 13.52Q98.22 13.72 97.71 13.72L97.71 13.72L97.71 13.72Q97.06 13.72 96.73 13.33L96.73 13.33L96.73 13.33Q96.39 12.94 96.39 12.22L96.39 12.22L96.32 12.22L96.32 12.22Q95.91 12.95 95.27 13.33L95.27 13.33L95.27 13.33Q94.63 13.71 93.80 13.71L93.80 13.71L93.80 13.71Q92.92 13.71 92.39 13.21L92.39 13.21L92.39 13.21Q91.85 12.71 91.85 11.91L91.85 11.91L91.85 11.91Q91.85 11.30 92.40 10.76L92.40 10.76L92.40 10.76Q92.95 10.22 94.22 9.70L94.22 9.70Z"></path></g><!----><g data-v-423bf9ae="" id="708fd454-154a-4407-abff-2cf4cda5feb6" transform="matrix(2.852072528086791,0,0,2.852072528086791,0.3618419448213217,-0.41116010653409063)" stroke="none" fill="white"><path d="M16 23.787L8.102 16 16 8.213 23.898 16 16 23.787zM9.525 16L16 22.383 22.475 16 16 9.617 9.525 16z"></path><path d="M15.915 31.778L-.005 16.084 16.085.222l15.92 15.694-16.09 15.862zM1.419 16.084l14.496 14.29 14.666-14.458-14.496-14.29L1.419 16.084z"></path><path d="M15.5.924h1v30.152h-1z"></path></g><!----></svg>